<svg width="45" height="43" viewBox="0 0 45 43" fill="none" xmlns="http://www.w3.org/2000/svg">
<path d="M7.30227 4.19888C7.21099 4.9291 6.93716 5.65932 6.66333 6.20699C6.57205 6.5721 6.38949 6.75466 6.38949 6.93721C6.29822 7.11977 6.20694 7.21105 6.20694 7.21105C6.20694 7.21105 5.9331 7.02849 5.65927 6.66338C5.47671 6.29827 5.20288 5.7506 5.20288 4.9291C5.20288 4.1076 5.56799 3.2861 5.9331 2.73843C6.02438 2.55588 6.11566 2.4646 6.20694 2.28204C6.38949 2.19076 6.38949 2.09949 6.48077 2.00821C6.66333 1.82565 6.75461 1.73438 6.75461 1.73438C6.75461 1.73438 6.93716 2.00821 7.11972 2.37332C7.21099 2.64715 7.21099 2.82971 7.30227 3.19482C7.30227 3.46865 7.30227 3.83377 7.30227 4.19888Z" fill="#C99C3B"/>
<path d="M4.19879 9.67556C4.29007 10.4971 4.19879 11.4098 4.10751 12.0488C4.10751 12.2313 4.01624 12.4139 4.01624 12.5052C4.01624 12.6877 4.01624 12.779 3.92496 12.8703C3.92496 13.0528 3.83368 13.2354 3.83368 13.2354C3.83368 13.2354 3.65113 13.0528 3.19474 12.779C3.01218 12.5965 2.82962 12.4139 2.64707 12.1401C2.46451 11.8662 2.28196 11.5011 2.19068 11.136C2.00812 10.3145 2.0994 9.31045 2.37324 8.58023C2.46451 8.21512 2.55579 7.85 2.64707 7.66745C2.73835 7.30234 2.82962 7.21106 2.82962 7.21106C2.82962 7.21106 2.9209 7.30234 3.01218 7.39362C3.10346 7.48489 3.28601 7.66745 3.46857 7.85001C3.65113 8.03256 3.7424 8.30639 3.92496 8.58023C4.01624 8.85406 4.10751 9.21917 4.19879 9.67556Z" fill="#C99C3B"/>
<path d="M2.64706 15.6997C3.01217 16.5212 3.19473 17.5253 3.37728 18.2555C3.37728 18.4381 3.46856 18.6206 3.46856 18.8032C3.46856 18.9857 3.55984 19.077 3.55984 19.2596C3.55984 19.5334 3.55984 19.6247 3.55984 19.6247C3.55984 19.6247 3.46856 19.6247 3.286 19.6247C3.10345 19.6247 2.92089 19.5334 2.64706 19.4421C2.37323 19.3508 2.09939 19.1683 1.82556 18.9857C1.55172 18.7119 1.27789 18.4381 1.00406 17.9817C0.547668 17.1602 0.365112 15.9736 0.365112 15.1521C0.365112 14.9695 0.365112 14.6957 0.365112 14.5131C0.365112 14.3306 0.365112 14.148 0.365112 14.0567C0.365112 13.7829 0.45639 13.6003 0.45639 13.6003C0.45639 13.6003 0.821502 13.6916 1.27789 14.0567C1.46045 14.2393 1.73428 14.4218 2.00811 14.787C2.19067 14.9695 2.4645 15.3346 2.64706 15.6997Z" fill="#C99C3B"/>
<path d="M2.92089 22.0893C3.65112 22.8195 4.10751 23.7323 4.56389 24.3712C4.56389 24.4625 4.65517 24.5538 4.65517 24.6451C4.65517 24.7364 4.74645 24.8276 4.74645 24.9189C4.83773 25.1015 4.92901 25.1927 4.92901 25.284C5.02028 25.4666 5.11156 25.6491 5.11156 25.6491C5.11156 25.6491 5.02028 25.6491 4.83773 25.7404C4.65517 25.7404 4.38134 25.8317 4.10751 25.7404C3.55984 25.7404 2.73834 25.5579 1.91684 24.8276C1.09533 24.0974 0.547667 23.0021 0.273834 22.0893C0.182556 21.8155 0.182556 21.6329 0.0912779 21.4503C0 21.2678 0 21.0852 0 20.9027C0 20.6288 0 20.4463 0 20.4463C0 20.4463 0.0912779 20.4463 0.273834 20.4463C0.456389 20.4463 0.730223 20.5376 1.00406 20.6288C1.27789 20.7201 1.643 20.9027 1.91684 21.0852C2.09939 21.1765 2.28195 21.3591 2.4645 21.4503C2.55578 21.7242 2.73834 21.9067 2.92089 22.0893Z" fill="#C99C3B"/>
<path d="M5.29412 27.931C5.3854 28.0223 5.47668 28.0223 5.65923 28.1136C5.75051 28.2049 5.93307 28.2961 6.02434 28.2961C6.2069 28.4787 6.48073 28.57 6.66329 28.7525C6.75457 28.8438 6.84585 28.9351 6.93712 29.0264C7.0284 29.0264 7.0284 29.1176 7.11968 29.1176C7.21096 29.1176 7.21096 29.2089 7.30223 29.2089C7.48479 29.3915 7.66735 29.4828 7.8499 29.6653C8.21501 29.9391 8.48885 30.213 8.6714 30.3955C8.85396 30.5781 8.94524 30.6694 8.94524 30.6694C8.94524 30.6694 8.76268 30.9432 8.58012 31.0345C8.39757 31.1258 8.21501 31.217 7.8499 31.3083C7.57607 31.3996 7.11968 31.4909 6.75457 31.4909C6.29818 31.4909 5.84179 31.3996 5.29412 31.1258C4.19879 30.6694 3.28601 29.7566 2.64706 28.8438C2.46451 28.6613 2.37323 28.3874 2.19067 28.2049C2.09939 28.0223 2.00812 27.8398 1.91684 27.7485C1.73428 27.4746 1.64301 27.2921 1.64301 27.2921C1.64301 27.2921 1.73428 27.2921 1.91684 27.2008C2.09939 27.2008 2.37323 27.2008 2.73834 27.2008C2.9209 27.2008 3.10345 27.2008 3.28601 27.2921C3.46856 27.2921 3.65112 27.3834 3.92495 27.3834C4.10751 27.4746 4.38134 27.4746 4.5639 27.5659C4.83773 27.7485 5.02029 27.8398 5.29412 27.931Z" fill="#C99C3B"/>
<path d="M9.31036 32.86C9.85802 32.9513 10.4057 33.1339 10.9534 33.3164C11.2272 33.4077 11.501 33.499 11.7749 33.5903C11.8661 33.6815 12.0487 33.6815 12.14 33.7728C12.2312 33.7728 12.4138 33.8641 12.5051 33.8641C12.9615 34.0467 13.3266 34.2292 13.6004 34.3205C13.6917 34.4118 13.8743 34.4118 13.8743 34.4118C13.9655 34.4118 13.9655 34.503 13.9655 34.503C13.9655 34.503 13.8743 34.5943 13.783 34.7769C13.6917 34.9594 13.4179 35.142 13.144 35.3246C12.8702 35.5071 12.5051 35.6897 12.0487 35.8722C11.8661 35.9635 11.5923 35.9635 11.3185 36.0548C11.0446 36.0548 10.7708 36.0548 10.4057 36.0548C10.1319 36.0548 9.76675 35.9635 9.49291 35.8722C9.21908 35.7809 8.85397 35.6897 8.58013 35.5071C8.3063 35.4158 8.03247 35.2333 7.66735 35.0507C7.39352 34.8682 7.11969 34.6856 6.93713 34.5943C6.84585 34.5943 6.84585 34.503 6.75458 34.503C6.6633 34.503 6.6633 34.4118 6.57202 34.4118C6.48074 34.3205 6.38946 34.2292 6.29819 34.1379C6.11563 33.9554 5.93307 33.8641 5.8418 33.6815C5.65924 33.499 5.47668 33.3164 5.47668 33.3164C5.47668 33.3164 5.56796 33.2252 5.75052 33.1339C5.93307 33.0426 6.20691 32.9513 6.57202 32.86C6.75457 32.86 6.93713 32.7688 7.11969 32.7688C7.30224 32.7688 7.57608 32.6775 7.75863 32.6775C8.03247 32.6775 8.21502 32.6775 8.48886 32.6775C8.76269 32.7688 9.03652 32.7688 9.31036 32.86Z" fill="#C99C3B"/>
<path d="M14.8783 36.1461C15.1522 36.0548 15.5173 36.0548 15.7911 36.0548C16.0649 36.0548 16.43 35.9635 16.7039 35.9635C16.9777 35.9635 17.3428 35.9635 17.6167 35.9635C17.8905 35.9635 18.1643 35.9635 18.4382 35.9635C18.9858 35.9635 19.3509 35.9635 19.716 35.9635C19.9899 35.9635 20.1724 35.9635 20.1724 35.9635C20.1724 35.9635 20.1724 36.0548 20.0812 36.3286C19.9899 36.5112 19.8986 36.785 19.716 37.1501C19.6248 37.3327 19.5335 37.5152 19.3509 37.6978C19.2597 37.7891 19.1684 37.8803 19.1684 37.9716C19.0771 38.0629 18.9858 38.1542 18.8945 38.2454C18.712 38.428 18.4382 38.6106 18.2556 38.7018C17.9818 38.8844 17.7079 38.9757 17.3428 39.0669C16.9777 39.1582 16.7039 39.2495 16.3388 39.2495C15.9737 39.3408 15.6085 39.3408 15.2434 39.2495C14.8783 39.2495 14.5132 39.1582 14.1481 39.1582C13.783 39.0669 13.5092 39.0669 13.144 38.9757C12.9615 38.9757 12.8702 38.8844 12.6876 38.8844C12.5051 38.7931 12.4138 38.7931 12.3225 38.7018C12.0487 38.6106 11.8661 38.5193 11.6836 38.428C11.3185 38.2454 11.1359 38.1542 11.1359 38.1542C11.1359 38.1542 11.2272 38.0629 11.4098 37.8803C11.5923 37.6978 11.7749 37.5152 12.14 37.3327C12.4138 37.1501 12.8702 36.8763 13.3266 36.6937C13.6917 36.4199 14.2394 36.2373 14.8783 36.1461Z" fill="#C99C3B"/>
<path d="M8.48886 5.11156C7.84991 5.29412 7.21097 5.84178 6.84585 6.29817C6.6633 6.57201 6.48074 6.75456 6.38946 6.93712C6.29819 7.11967 6.20691 7.21095 6.20691 7.21095C6.20691 7.21095 6.48074 7.30223 6.93713 7.39351C7.39352 7.39351 7.94119 7.39351 8.58013 7.11968C9.21908 6.84584 9.76675 6.38945 10.1319 6.02434C10.2231 5.93306 10.3144 5.84178 10.4057 5.75051C10.497 5.65923 10.5882 5.56795 10.5882 5.56795C10.6795 5.47667 10.7708 5.3854 10.7708 5.3854C10.7708 5.3854 10.497 5.20284 10.1319 5.11156C9.9493 5.02028 9.67547 5.02028 9.40164 5.02028C9.1278 4.92901 8.76269 4.92901 8.48886 5.11156Z" fill="#C99C3B"/>
<path d="M5.75052 10.2232C5.11157 10.6796 4.65518 11.4098 4.38135 12.0487C4.29007 12.2313 4.29007 12.3226 4.19879 12.5051C4.10751 12.5964 4.10751 12.779 4.10751 12.8702C4.01624 13.0528 4.01624 13.2353 4.01624 13.2353C4.01624 13.2353 4.38135 13.2353 4.83774 13.1441C5.11157 13.0528 5.3854 13.0528 5.65924 12.8702C5.93307 12.779 6.2069 12.5964 6.57202 12.3226C7.11968 11.8662 7.57607 11.2272 7.94118 10.6796C7.94118 10.497 8.12374 10.2232 8.21502 10.0406C8.3063 9.85806 8.3063 9.76678 8.3063 9.76678C8.3063 9.76678 8.21502 9.76678 8.12374 9.67551C7.94118 9.67551 7.75863 9.58423 7.57607 9.58423C7.30224 9.58423 7.02841 9.58423 6.75457 9.67551C6.38946 9.85806 6.02435 10.0406 5.75052 10.2232Z" fill="#C99C3B"/>
<path d="M4.38132 15.8824C3.83365 16.5214 3.55981 17.4342 3.46854 18.2557C3.46854 18.4382 3.46854 18.6208 3.37726 18.8033C3.37726 18.9859 3.37726 19.0772 3.37726 19.2597C3.37726 19.5336 3.37726 19.6248 3.37726 19.6248C3.37726 19.6248 3.46854 19.6248 3.65109 19.5336C3.83365 19.4423 4.0162 19.351 4.29004 19.2597C4.56387 19.1684 4.74643 18.9859 5.02026 18.7121C5.29409 18.5295 5.56793 18.2557 5.75048 17.8906C6.20687 17.2516 6.48071 16.5214 6.66326 15.8824C6.66326 15.6999 6.75454 15.6086 6.75454 15.4261C6.75454 15.3348 6.84582 15.1522 6.84582 15.0609C6.9371 14.8784 6.9371 14.7871 6.9371 14.7871C6.9371 14.7871 6.57198 14.7871 6.02432 14.8784C5.75048 14.9697 5.47665 15.0609 5.20282 15.2435C5.02026 15.3348 4.65515 15.6086 4.38132 15.8824Z" fill="#C99C3B"/>
<path d="M4.83771 21.6329C4.56388 22.4544 4.56388 23.5497 4.74643 24.3712C4.74643 24.4625 4.74643 24.5538 4.83771 24.645C4.83771 24.7363 4.92899 24.8276 4.92899 24.9189C5.02027 25.1014 5.02027 25.1927 5.11154 25.3753C5.11154 25.4665 5.20282 25.5578 5.20282 25.6491C5.20282 25.7404 5.20282 25.7404 5.20282 25.7404C5.20282 25.7404 5.2941 25.6491 5.38538 25.5578C5.47666 25.4665 5.65921 25.284 5.93304 25.1014C6.29816 24.645 6.75455 24.0061 6.9371 23.1846C7.21093 22.3631 7.21094 21.4503 7.21094 20.8114C7.21094 20.6288 7.21094 20.4463 7.21094 20.355C7.21094 20.1724 7.21094 20.0811 7.21094 19.9899C7.21094 19.8073 7.21094 19.6248 7.21094 19.6248C7.21094 19.6248 7.11966 19.6248 6.9371 19.716C6.75455 19.8073 6.57199 19.8986 6.29816 19.9899C6.02432 20.0811 5.75049 20.2637 5.47665 20.5375C5.38538 20.6288 5.20282 20.8114 5.11154 20.9939C5.02027 21.1765 4.92899 21.359 4.83771 21.6329Z" fill="#C99C3B"/>
<path d="M7.11969 26.8357C7.11969 26.927 7.11969 27.1095 7.11969 27.2008C7.11969 27.2921 7.11969 27.4746 7.21097 27.5659C7.21097 27.8397 7.30225 28.0223 7.39352 28.2961C7.39352 28.3874 7.4848 28.57 7.4848 28.6612C7.4848 28.7525 7.57608 28.7525 7.57608 28.8438C7.57608 28.9351 7.66736 28.9351 7.66736 29.0264C7.75863 29.2089 7.84991 29.4827 8.03247 29.6653C8.3063 30.0304 8.48886 30.3955 8.67141 30.5781C8.85397 30.7606 8.94525 30.9432 8.94525 30.9432C8.94525 30.9432 9.03653 30.8519 9.1278 30.6694C9.21908 30.4868 9.31036 30.3042 9.49291 29.9391C9.58419 29.6653 9.67547 29.3002 9.76675 28.9351C9.85803 28.57 9.85803 28.1136 9.85803 27.6572C9.85803 26.7444 9.58419 25.8316 9.31036 25.1927C9.1278 25.0101 9.1278 24.8276 9.03653 24.645C8.94525 24.4625 8.94525 24.3712 8.85397 24.2799C8.76269 24.0974 8.76269 23.9148 8.76269 23.9148C8.76269 23.9148 8.67141 24.0061 8.48886 24.0973C8.3063 24.1886 8.12375 24.3712 7.94119 24.645C7.84991 24.7363 7.75863 24.9189 7.66736 25.0101C7.57608 25.1927 7.4848 25.284 7.39352 25.4665C7.30225 25.6491 7.21097 25.8316 7.21097 26.1055C7.11969 26.3793 7.11969 26.6531 7.11969 26.8357Z" fill="#C99C3B"/>
<path d="M10.8621 31.1256C11.0447 31.6733 11.3185 32.1297 11.5923 32.5861C11.7749 32.7686 11.9575 33.0425 12.14 33.225C12.2313 33.3163 12.3226 33.4076 12.4138 33.4989C12.5051 33.5901 12.5964 33.6814 12.6877 33.7727C13.0528 34.0465 13.4179 34.3204 13.6917 34.4116C13.783 34.5029 13.9656 34.5029 13.9656 34.5942C14.0568 34.5942 14.0568 34.6855 14.0568 34.6855C14.0568 34.6855 14.0568 34.5942 14.1481 34.4116C14.1481 34.2291 14.2394 33.9552 14.2394 33.5901C14.2394 33.225 14.2394 32.8599 14.1481 32.4035C14.1481 32.221 14.0568 31.9471 14.0568 31.7646C13.9656 31.582 13.9656 31.3082 13.8743 31.1256C13.5092 30.2129 12.9615 29.4826 12.5051 28.8437L12.4138 28.7524L12.3226 28.6611C12.2313 28.5699 12.2313 28.5699 12.14 28.4786C12.0487 28.3873 11.9575 28.296 11.8662 28.2047C11.6836 28.0222 11.5923 27.9309 11.5923 27.9309C11.5923 27.9309 11.5011 28.0222 11.4098 28.2047C11.3185 28.3873 11.136 28.5699 11.0447 28.935C10.9534 29.1175 10.9534 29.3001 10.8621 29.4826C10.7708 29.6652 10.7708 29.8477 10.7708 30.0303C10.7708 30.2129 10.7708 30.4867 10.7708 30.6692C10.6796 30.6692 10.7708 30.8518 10.8621 31.1256Z" fill="#C99C3B"/>
<path d="M9.76672 1.18661C8.94522 1.91684 8.48883 2.73834 8.30627 3.37728C8.215 3.55984 8.215 3.74239 8.12372 3.83367C8.12372 3.92495 8.03244 4.10751 8.03244 4.19878C8.03244 4.38134 7.94116 4.47262 7.94116 4.47262C7.94116 4.47262 8.03244 4.47262 8.215 4.38134C8.30627 4.38134 8.39755 4.29006 8.48883 4.19878C8.58011 4.10751 8.76266 4.10751 8.85394 4.01623C9.40161 3.74239 10.1318 3.286 10.8621 2.64706C11.501 2.09939 12.0487 1.36917 12.4138 0.912779C12.5051 0.821501 12.5963 0.638945 12.6876 0.547667C12.7789 0.456389 12.8702 0.365112 12.8702 0.273834C13.2353 0.0912779 13.2353 0 13.2353 0C13.2353 0 13.144 0 12.9614 0C12.8702 0 12.7789 0 12.5963 0C12.4138 0 12.3225 0 12.1399 0.0912779C11.9574 0.0912779 11.7748 0.182556 11.5923 0.273834C11.501 0.273834 11.4097 0.365112 11.3184 0.365112C11.2272 0.365112 11.1359 0.456389 11.0446 0.456389C10.9533 0.547667 10.8621 0.547667 10.7708 0.638945C10.6795 0.730223 10.5882 0.730223 10.4969 0.821501C10.2231 0.821501 10.1318 0.912779 10.0406 1.00406C9.94928 1.09533 9.858 1.18661 9.76672 1.18661Z" fill="#C99C3B"/>
<path d="M15.6998 33.864C15.8824 34.0465 16.0649 34.3204 16.2475 34.5029C16.43 34.6855 16.7039 34.868 16.9777 34.9593C17.2515 35.1419 17.4341 35.2331 17.7079 35.3244C17.9817 35.4157 18.2556 35.507 18.4381 35.5983C18.8945 35.6895 19.3509 35.7808 19.6247 35.7808C19.8986 35.7808 20.0811 35.7808 20.0811 35.7808C20.0811 35.7808 20.0811 35.6895 19.9899 35.4157C19.8986 35.2331 19.8073 34.868 19.716 34.5942C19.6247 34.4116 19.5335 34.2291 19.4422 34.0465C19.3509 33.9553 19.3509 33.864 19.2596 33.7727C19.1684 33.6814 19.1684 33.5901 19.0771 33.4989C18.9858 33.3163 18.8032 33.1338 18.712 32.9512C18.5294 32.7686 18.4381 32.5861 18.2556 32.4035C17.6166 31.6733 16.7951 31.1256 16.1562 30.7605C16.0649 30.6693 15.9736 30.6692 15.9736 30.578C15.8824 30.4867 15.7911 30.4867 15.7911 30.4867C15.6998 30.3954 15.5172 30.3041 15.426 30.3041C15.2434 30.2129 15.1521 30.1216 15.1521 30.1216C15.1521 30.1216 15.0609 30.2129 15.0609 30.4867C14.9696 30.6693 14.9696 30.9431 14.8783 31.3082C14.8783 31.6733 14.8783 32.0384 14.9696 32.4948C15.1521 32.9512 15.3347 33.4076 15.6998 33.864Z" fill="#C99C3B"/>
<path d="M21.4503 40.8012C22.0893 39.9797 22.3631 38.8843 22.4544 38.0628C22.4544 37.6064 22.5457 37.2413 22.5457 36.9675C22.5457 36.6937 22.5457 36.5111 22.5457 36.5111C22.5457 36.5111 22.0893 36.6024 21.5416 36.9675C20.994 37.2413 20.2637 37.789 19.7161 38.6105C19.1684 39.432 18.8946 40.3448 18.712 41.075C18.6207 41.2576 18.6207 41.4401 18.6207 41.6227C18.6207 41.8052 18.5294 41.8965 18.5294 41.9878C18.5294 42.1703 18.4382 42.3529 18.4382 42.3529C18.4382 42.3529 18.8946 42.3529 19.5335 42.1703C19.8073 42.0791 20.1725 41.9878 20.5376 41.7139C20.8114 41.4401 21.0852 41.1663 21.4503 40.8012Z" fill="#C99C3B"/>
<path d="M23.4584 40.8012C22.8195 39.9797 22.5457 38.8843 22.4544 38.0628C22.4544 37.6064 22.3631 37.2413 22.3631 36.9675C22.3631 36.6937 22.3631 36.5111 22.3631 36.5111C22.3631 36.5111 22.8195 36.6024 23.3672 36.9675C23.9148 37.2413 24.645 37.789 25.1927 38.6105C25.7404 39.432 26.0142 40.3448 26.1968 41.075C26.288 41.2576 26.288 41.4401 26.288 41.6227C26.288 41.8052 26.3793 41.8965 26.3793 41.9878C26.3793 42.1703 26.4706 42.3529 26.4706 42.3529C26.4706 42.3529 26.0142 42.3529 25.3753 42.1703C25.1014 42.0791 24.7363 41.9878 24.3712 41.7139C24.0974 41.4401 23.7323 41.1663 23.4584 40.8012Z" fill="#C99C3B"/>
<path d="M36.4199 5.29413C37.0589 5.56796 37.6978 6.02435 38.0629 6.48074C38.2455 6.75457 38.428 6.93713 38.5193 7.11968C38.6106 7.30224 38.7019 7.39352 38.7019 7.39352C38.7019 7.39352 38.3368 7.4848 37.8804 7.57607C37.424 7.57607 36.8763 7.57607 36.2374 7.30224C35.5984 7.02841 35.0507 6.57202 34.6856 6.2069C34.5944 6.11563 34.5031 6.02435 34.4118 5.93307C34.3205 5.84179 34.2292 5.75052 34.2292 5.75052C34.138 5.65924 34.0467 5.56796 34.0467 5.56796C34.0467 5.56796 34.3205 5.3854 34.6856 5.29413C34.8682 5.20285 35.142 5.20285 35.4159 5.20285C35.781 5.11157 36.0548 5.20285 36.4199 5.29413Z" fill="#C99C3B"/>
<path d="M39.1582 10.3144C39.7971 10.7708 40.2535 11.501 40.5273 12.1399C40.6186 12.3225 40.6186 12.4138 40.7099 12.5963C40.8012 12.6876 40.8012 12.8702 40.8012 12.9614C40.8924 13.144 40.8924 13.3266 40.8924 13.3266C40.8924 13.3266 40.5273 13.3266 40.0709 13.2353C39.7971 13.144 39.5233 13.144 39.2494 12.9614C38.9756 12.8702 38.7018 12.6876 38.3367 12.4138C37.789 11.9574 37.3326 11.3184 36.9675 10.8621C36.7849 10.5882 36.6937 10.4057 36.6024 10.2231C36.5111 10.0406 36.5111 9.94928 36.5111 9.94928C36.5111 9.94928 36.6024 9.94928 36.6937 9.858C36.8762 9.858 37.0588 9.76672 37.2413 9.76672C37.5152 9.76672 37.789 9.76672 38.0628 9.858C38.5192 9.94928 38.7931 10.1318 39.1582 10.3144Z" fill="#C99C3B"/>
<path d="M40.5273 15.9736C41.075 16.6125 41.3488 17.5253 41.4401 18.2555C41.4401 18.4381 41.4401 18.6206 41.5314 18.8032C41.5314 18.9857 41.5314 19.077 41.5314 19.1683C41.5314 19.4421 41.5314 19.5334 41.5314 19.5334C41.5314 19.5334 41.4401 19.5334 41.2576 19.4421C41.075 19.3509 40.8925 19.2596 40.6186 19.1683C40.3448 19.077 40.1622 18.8945 39.8884 18.6206C39.6146 18.4381 39.3407 18.1642 39.1582 17.7991C38.7018 17.1602 38.4279 16.43 38.2454 15.791C38.2454 15.6085 38.1541 15.5172 38.1541 15.3346C38.1541 15.2433 38.0628 15.0608 38.0628 14.9695C37.9716 14.787 37.9716 14.6957 37.9716 14.6957C37.9716 14.6957 38.3367 14.6957 38.8843 14.787C39.1582 14.8782 39.432 14.9695 39.7058 15.1521C39.9797 15.3346 40.2535 15.6085 40.5273 15.9736Z" fill="#C99C3B"/>
<path d="M40.1623 21.5417C40.4361 22.3632 40.4361 23.4585 40.2535 24.1887C40.2535 24.28 40.2535 24.3713 40.1623 24.4626C40.1623 24.5539 40.071 24.6451 40.071 24.7364C39.9797 24.919 39.9797 25.0102 39.8884 25.1928C39.8884 25.2841 39.7971 25.3754 39.7971 25.4666C39.7971 25.5579 39.7971 25.5579 39.7971 25.5579C39.7971 25.5579 39.7059 25.4666 39.6146 25.3754C39.5233 25.2841 39.3408 25.1015 39.0669 24.919C38.7018 24.4626 38.2454 23.8236 37.9716 23.0021C37.6978 22.1806 37.6978 21.3591 37.6978 20.6289C37.6978 20.4463 37.6978 20.2638 37.6978 20.1725C37.6978 19.99 37.6978 19.8987 37.6978 19.8074C37.6978 19.6248 37.6978 19.5336 37.6978 19.5336C37.6978 19.5336 37.789 19.5336 37.9716 19.6248C38.1541 19.7161 38.3367 19.8074 38.6105 19.8987C38.8844 20.0812 39.1582 20.2638 39.3408 20.5376C39.432 20.6289 39.6146 20.8115 39.7059 20.994C39.9797 21.1766 40.071 21.3591 40.1623 21.5417Z" fill="#C99C3B"/>
<path d="M37.9716 26.8357C37.9716 26.927 37.9716 27.1096 37.9716 27.2009C37.9716 27.2921 37.9716 27.4747 37.8803 27.566C37.8803 27.8398 37.7891 28.0224 37.6978 28.2962C37.6978 28.3875 37.6065 28.57 37.6065 28.6613C37.6065 28.7526 37.6065 28.7526 37.5152 28.8439C37.5152 28.9351 37.4239 28.9351 37.4239 29.0264C37.3327 29.209 37.2414 29.4828 37.0588 29.6654C36.785 30.0305 36.6024 30.3043 36.4199 30.5781C36.2373 30.7607 36.1461 30.9433 36.1461 30.9433C36.1461 30.9433 36.0548 30.852 35.9635 30.6694C35.8722 30.4869 35.7809 30.3043 35.5984 29.9392C35.5071 29.6654 35.4158 29.3003 35.3246 28.9351C35.2333 28.57 35.2333 28.1136 35.2333 27.6572C35.2333 26.7445 35.5071 25.8317 35.7809 25.1927C35.8722 25.0102 35.8722 24.8276 35.9635 24.7364C36.0548 24.5538 36.0548 24.4625 36.1461 24.3712C36.2373 24.1887 36.2373 24.0974 36.2373 24.0974C36.2373 24.0974 36.3286 24.1887 36.5112 24.28C36.6937 24.3712 36.8763 24.5538 37.0588 24.8276C37.1501 24.9189 37.2414 25.1015 37.3327 25.1927C37.4239 25.3753 37.5152 25.4666 37.6065 25.6491C37.6978 25.8317 37.7891 26.0142 37.7891 26.1968C37.9716 26.2881 37.9716 26.5619 37.9716 26.8357Z" fill="#C99C3B"/>
<path d="M34.3205 31.1257C34.1379 31.6734 33.9553 32.1298 33.5902 32.4949C33.4077 32.6774 33.2251 32.9513 33.0426 33.1338C32.9513 33.2251 32.86 33.3164 32.7687 33.4077C32.6775 33.4989 32.5862 33.5902 32.4949 33.6815C32.1298 33.9553 31.7647 34.2292 31.4908 34.3205C31.3996 34.4117 31.217 34.4117 31.217 34.503C31.1257 34.503 31.1257 34.5943 31.1257 34.5943C31.1257 34.5943 31.1257 34.503 31.0345 34.3205C31.0345 34.1379 30.9432 33.8641 30.9432 33.499C30.9432 33.1338 30.9432 32.7687 31.0345 32.3123C31.0345 32.1298 31.1257 31.8559 31.1257 31.6734C31.217 31.4908 31.217 31.217 31.3083 31.0344C31.6734 30.1217 32.2211 29.3914 32.5862 28.7525L32.6775 28.6612L32.7687 28.5699C32.86 28.4787 32.86 28.4787 32.9513 28.3874C33.0426 28.2961 33.1338 28.2048 33.2251 28.1136C33.4077 27.931 33.499 27.8397 33.499 27.8397C33.499 27.8397 33.5902 27.931 33.6815 28.1136C33.7728 28.2961 33.9553 28.4787 34.0466 28.8438C34.1379 29.0263 34.1379 29.2089 34.2292 29.3914C34.3205 29.574 34.3205 29.7566 34.3205 29.9391C34.3205 30.1217 34.3205 30.3955 34.3205 30.5781C34.4117 30.5781 34.4117 30.8519 34.3205 31.1257Z" fill="#C99C3B"/>
<path d="M29.4828 33.864C29.3002 34.0465 29.1177 34.3204 28.9351 34.5029C28.7526 34.6855 28.4787 34.868 28.2049 34.9593C27.9311 35.1419 27.7485 35.2331 27.4747 35.3244C27.2008 35.4157 26.927 35.507 26.7444 35.5983C26.2881 35.6895 25.8317 35.7808 25.5578 35.7808C25.284 35.7808 25.1014 35.7808 25.1014 35.7808C25.1014 35.7808 25.1014 35.6895 25.1927 35.4157C25.284 35.2331 25.3753 34.868 25.4666 34.5942C25.5578 34.4116 25.6491 34.2291 25.7404 34.0465C25.8317 33.9553 25.8317 33.864 25.9229 33.7727C26.0142 33.6814 26.0142 33.5901 26.1055 33.4989C26.1968 33.3163 26.3793 33.1338 26.4706 32.9512C26.6532 32.7686 26.7444 32.5861 26.927 32.4035C27.5659 31.6733 28.3874 31.1256 29.0264 30.7605C29.1177 30.6693 29.2089 30.6692 29.2089 30.578C29.3002 30.4867 29.3915 30.4867 29.3915 30.4867C29.4828 30.3954 29.6653 30.3041 29.7566 30.3041C29.9392 30.2129 30.0304 30.1216 30.0304 30.1216C30.0304 30.1216 30.1217 30.2129 30.1217 30.4867C30.213 30.6693 30.213 30.9431 30.3043 31.3082C30.3043 31.6733 30.3043 32.0384 30.213 32.4948C30.0304 32.9512 29.8479 33.4076 29.4828 33.864Z" fill="#C99C3B"/>
<path d="M37.6065 4.3814C37.6977 5.11163 37.9716 5.84185 38.2454 6.38952C38.3367 6.66335 38.5192 6.93719 38.5192 7.11974C38.6105 7.3023 38.7018 7.39357 38.7018 7.39357C38.7018 7.39357 38.9756 7.21102 39.2495 6.84591C39.5233 6.4808 39.7971 5.93313 39.7059 5.11163C39.7059 4.3814 39.3407 3.5599 38.9756 2.92096C38.8844 2.7384 38.7931 2.64712 38.7018 2.55585C38.6105 2.46457 38.5192 2.37329 38.428 2.28201C38.3367 2.09946 38.2454 2.00818 38.2454 2.00818C38.2454 2.00818 38.0629 2.28201 37.8803 2.64712C37.789 2.82968 37.6977 3.10351 37.6977 3.37735C37.5152 3.74246 37.5152 4.01629 37.6065 4.3814Z" fill="#C99C3B"/>
<path d="M40.71 9.76678C40.6187 10.5883 40.6187 11.4098 40.71 12.14C40.71 12.3226 40.8013 12.5051 40.8013 12.5964C40.8013 12.779 40.8013 12.8702 40.8926 12.9615C40.8926 13.1441 40.9838 13.3266 40.9838 13.3266C40.9838 13.3266 41.3489 13.2353 41.7141 12.8702C41.8966 12.6877 42.0792 12.5051 42.2617 12.2313C42.4443 11.9574 42.6268 11.5923 42.7181 11.2272C42.9007 10.4057 42.8094 9.40167 42.5356 8.67144C42.4443 8.30633 42.353 8.0325 42.2617 7.75867C42.1704 7.57611 42.0792 7.39355 42.0792 7.39355C42.0792 7.39355 41.9879 7.39355 41.8966 7.48483C41.8053 7.57611 41.6228 7.75867 41.4402 7.94122C41.2577 8.12378 41.1664 8.39761 40.9838 8.67144C40.8926 9.03656 40.71 9.31039 40.71 9.76678Z" fill="#C99C3B"/>
<path d="M42.2617 15.6998C41.8965 16.5213 41.714 17.4341 41.5314 18.1643C41.5314 18.3469 41.4402 18.5294 41.4402 18.712C41.4402 18.8945 41.3489 18.9858 41.3489 19.0771C41.3489 19.3509 41.3489 19.4422 41.3489 19.4422C41.3489 19.4422 41.4402 19.4422 41.6227 19.4422C41.8053 19.4422 41.9878 19.3509 42.2617 19.2596C42.5355 19.1684 42.8093 18.9858 43.0832 18.8032C43.357 18.5294 43.6308 18.2556 43.9047 17.7992C44.361 16.9777 44.5436 15.8823 44.5436 14.9696C44.5436 14.787 44.5436 14.5132 44.5436 14.3306C44.5436 14.1481 44.5436 13.9655 44.5436 13.8742C44.5436 13.6004 44.4523 13.4178 44.4523 13.4178C44.4523 13.4178 44.0872 13.5091 43.6308 13.8742C43.4483 14.0568 43.1744 14.2393 42.9006 14.5132C42.718 14.9696 42.4442 15.3347 42.2617 15.6998Z" fill="#C99C3B"/>
<path d="M42.0791 21.9981C41.4401 22.7283 40.8925 23.6411 40.4361 24.2801C40.3448 24.3713 40.3448 24.4626 40.2535 24.5539C40.1622 24.6452 40.1622 24.7364 40.1622 24.8277C40.071 25.0103 39.9797 25.1016 39.9797 25.1928C39.8884 25.3754 39.7971 25.5579 39.7971 25.5579C39.7971 25.5579 39.8884 25.5579 40.071 25.6492C40.2535 25.6492 40.5273 25.7405 40.8012 25.6492C41.3488 25.6492 42.1703 25.4667 42.9918 24.7364C43.7221 24.0062 44.361 22.9109 44.6349 21.9981C44.7261 21.8155 44.7261 21.5417 44.8174 21.3592C44.9087 21.1766 44.9087 20.994 44.9087 20.8115C45 20.5377 45 20.3551 45 20.3551C45 20.3551 44.9087 20.3551 44.7261 20.3551C44.5436 20.3551 44.2697 20.4464 43.9959 20.5377C43.7221 20.6289 43.357 20.8115 43.0831 20.994C42.9006 21.0853 42.718 21.2679 42.5355 21.3592C42.3529 21.633 42.2616 21.8155 42.0791 21.9981Z" fill="#C99C3B"/>
<path d="M39.7972 27.931C39.7059 28.0223 39.5233 28.0223 39.4321 28.1136C39.3408 28.2048 39.1582 28.2961 39.067 28.2961C38.8844 28.4787 38.6106 28.5699 38.428 28.7525C38.3367 28.8438 38.2454 28.9351 38.1542 29.0263C38.0629 29.0263 38.0629 29.1176 37.9716 29.1176C37.8803 29.1176 37.8803 29.2089 37.7891 29.2089C37.6065 29.3914 37.4239 29.4827 37.2414 29.6653C36.8763 29.9391 36.6024 30.2129 36.4199 30.3955C36.2373 30.5781 36.1461 30.6693 36.1461 30.6693C36.1461 30.6693 36.2373 30.7606 36.4199 30.8519C36.6024 30.9432 36.785 31.0344 37.1501 31.1257C37.4239 31.217 37.8803 31.3083 38.2455 31.3083C38.7018 31.3083 39.1582 31.217 39.7059 30.9432C40.71 30.4868 41.714 29.574 42.353 28.7525C42.5355 28.5699 42.6268 28.2961 42.7181 28.1136C42.8093 27.931 42.9006 27.7484 42.9919 27.6572C43.1745 27.3833 43.2657 27.2008 43.2657 27.2008C43.2657 27.2008 43.1745 27.2008 42.9919 27.1095C42.8093 27.1095 42.5355 27.1095 42.1704 27.1095C41.9878 27.1095 41.8053 27.1095 41.6227 27.2008C41.4402 27.2008 41.2576 27.2921 40.9838 27.2921C40.8012 27.3833 40.5274 27.3833 40.3448 27.4746C40.2536 27.6572 39.9797 27.7484 39.7972 27.931Z" fill="#C99C3B"/>
<path d="M35.7809 32.7687C35.2333 32.86 34.6856 33.0426 34.1379 33.2251C33.8641 33.3164 33.5903 33.4077 33.4077 33.499C33.3164 33.5902 33.1339 33.5902 33.0426 33.6815C32.9513 33.6815 32.7688 33.7728 32.6775 33.7728C32.2211 33.9553 31.856 34.1379 31.5822 34.2292C31.4909 34.3205 31.3083 34.3205 31.3083 34.3205C31.217 34.3205 31.217 34.4117 31.217 34.4117C31.217 34.4117 31.3083 34.503 31.3996 34.6856C31.4909 34.8681 31.7647 35.0507 32.0385 35.2332C32.3124 35.4158 32.6775 35.6896 33.1339 35.7809C33.3164 35.8722 33.5903 35.8722 33.8641 35.9635C34.1379 35.9635 34.4118 36.0547 34.7769 35.9635C35.0507 35.9635 35.4158 35.8722 35.6897 35.7809C35.9635 35.6896 36.3286 35.5984 36.6024 35.4158C36.8763 35.3245 37.1501 35.142 37.5152 34.9594C37.789 34.7768 38.0629 34.5943 38.2454 34.503C38.3367 34.503 38.3367 34.4117 38.428 34.4117C38.5193 34.4117 38.5193 34.3205 38.6105 34.3205C38.7018 34.2292 38.7931 34.1379 38.8844 34.0466C39.0669 33.8641 39.2495 33.7728 39.3408 33.5902C39.6146 33.3164 39.7059 33.2251 39.7059 33.2251C39.7059 33.2251 39.6146 33.1338 39.4321 33.0426C39.2495 32.9513 38.9757 32.86 38.6105 32.7687C38.428 32.7687 38.2454 32.6775 38.0629 32.6775C37.8803 32.6775 37.6065 32.5862 37.4239 32.5862C37.1501 32.5862 36.9675 32.5862 36.6937 32.5862C36.3286 32.7687 36.0548 32.7687 35.7809 32.7687Z" fill="#C99C3B"/>
<path d="M33.9554 3.01208C34.5943 3.55975 35.3245 4.01614 35.8722 4.28997C36.0548 4.38125 36.146 4.38125 36.2373 4.47253C36.4199 4.47253 36.5112 4.5638 36.6024 4.5638C36.785 4.65508 36.8763 4.65508 36.8763 4.65508C36.8763 4.65508 36.8763 4.5638 36.785 4.38125C36.785 4.28997 36.6937 4.19869 36.6937 4.01614C36.6937 3.92486 36.6024 3.7423 36.5112 3.55975C36.2373 2.9208 35.7809 2.0993 35.0507 1.46036C34.9594 1.36908 34.8682 1.2778 34.7769 1.2778C34.6856 1.18652 34.5943 1.18652 34.503 1.09524C34.4118 1.00397 34.3205 1.00397 34.2292 0.912688C34.1379 0.82141 34.0467 0.82141 33.9554 0.82141C33.8641 0.82141 33.7728 0.730133 33.6815 0.730133C33.5903 0.730133 33.499 0.638855 33.4077 0.638855C33.3164 0.638855 33.2252 0.547577 33.1339 0.547577C33.0426 0.547577 32.9513 0.547577 32.86 0.547577C32.6775 0.547577 32.5862 0.547577 32.4037 0.456299C32.2211 0.456299 32.1298 0.456299 32.0385 0.456299C31.856 0.456299 31.7647 0.456299 31.7647 0.456299C31.7647 0.456299 31.856 0.547577 31.9473 0.730133C31.9473 0.730133 32.0385 0.82141 32.1298 0.912688C32.2211 1.00397 32.3124 1.09524 32.4037 1.2778C32.7688 1.82547 33.3164 2.46441 33.9554 3.01208Z" fill="#C99C3B"/>
<path d="M30.3043 36.1461C30.0305 36.0548 29.6654 36.0548 29.3915 36.0548C29.1177 36.0548 28.7526 35.9635 28.4788 35.9635C28.2049 35.9635 27.8398 35.9635 27.566 35.9635C27.2921 35.9635 27.0183 35.9635 26.7445 35.9635C26.1968 35.9635 25.8317 35.9635 25.4666 35.9635C25.1927 35.9635 25.0102 35.9635 25.0102 35.9635C25.0102 35.9635 25.0102 36.0548 25.1015 36.3286C25.1927 36.5112 25.284 36.785 25.4666 37.1501C25.5579 37.3327 25.6491 37.5152 25.8317 37.6978C25.923 37.7891 26.0143 37.8803 26.0143 37.9716C26.1055 38.0629 26.1968 38.1542 26.2881 38.2454C26.4706 38.428 26.6532 38.6106 26.927 38.7018C27.2009 38.8844 27.4747 38.9757 27.8398 39.0669C28.2049 39.1582 28.4788 39.2495 28.8439 39.2495C29.209 39.3408 29.5741 39.3408 29.9392 39.2495C30.3043 39.2495 30.6694 39.1582 31.0345 39.1582C31.3996 39.0669 31.7648 39.0669 32.0386 38.9757C32.2211 38.9757 32.3124 38.8844 32.495 38.8844C32.6775 38.7931 32.7688 38.7931 32.8601 38.7018C33.1339 38.6106 33.3165 38.5193 33.499 38.428C33.8641 38.2454 34.0467 38.1542 34.0467 38.1542C34.0467 38.1542 33.9554 38.0629 33.7729 37.8803C33.5903 37.6978 33.4078 37.5152 33.0426 37.3327C32.7688 37.1501 32.3124 36.8763 31.856 36.6937C31.4909 36.4199 30.9433 36.2373 30.3043 36.1461Z" fill="#C99C3B"/>
</svg>
