<svg width="120" height="40" viewBox="0 0 120 40" fill="none" xmlns="http://www.w3.org/2000/svg">
<path d="M7.7 40H6.8C6.2 40 5.6 40 4.9 39.8C4.3 39.7 3.7 39.5 3.2 39.2C2.7 38.9 2.2 38.6 1.8 38.1C1.4 37.7 1 37.2 0.8 36.6C0.5 36.1 0.4 35.5 0.2 34.9C0.1 34.3 0 33.6 0 33V7C0 6.5 0 5.7 0.2 5C0.3 4.4 0.5 3.8 0.8 3.3L1.8 1.8C2.2 1.4 2.7 1 3.2 0.8C3.7 0.5 4.3 0.3 4.9 0.2C5.5 0.1 6.2 0 6.8 0H112.9C113.4 0 114.1 0 114.8 0.2C115.4 0.3 116 0.5 116.5 0.8C117 1.1 117.5 1.4 117.9 1.9C118.3 2.3 118.7 2.8 118.9 3.4C119.2 3.9 119.3 4.5 119.4 5.1C119.5 5.8 119.6 6.4 119.6 7.1V33.1C119.6 33.7 119.5 34.4 119.4 35C119.3 35.6 119.1 36.2 118.9 36.7C118.6 37.2 118.3 37.7 117.9 38.1C117.478 38.5206 117.008 38.8898 116.5 39.2C116 39.5 115.4 39.7 114.8 39.8L112.9 40H7.7Z" fill="#000001"/>
<path d="M24.8 20.3001C24.8 17.5001 27.1 16.2001 27.2 16.1001C25.9 14.2001 23.9 14.0001 23.2 13.9001C21.5 13.7001 19.9 14.9001 19 14.9001C18.1 14.9001 16.8 13.9001 15.4 13.9001C13.6 13.9001 11.9 15.0001 10.9 16.6001C9.00002 19.9001 10.4 24.9001 12.3 27.6001C13.2 28.9001 14.3 30.4001 15.7 30.4001C17.1 30.3001 17.6 29.5001 19.3 29.5001C21 29.5001 21.4 30.4001 22.9 30.4001C24.4 30.4001 25.3 29.1001 26.2 27.7001C27.3 26.2001 27.7 24.7001 27.7 24.6001C27.7 24.7001 24.8 23.6001 24.8 20.3001ZM22 12.2001C22.7 11.3001 23.3 10.0001 23.1 8.70007C22 8.70007 20.7 9.40007 19.9 10.4001C19.2 11.2001 18.6 12.5001 18.8 13.8001C20 13.8001 21.3 13.1001 22 12.2001ZM42.3 27.1001H37.6L36.5 30.5001H34.5L39 18.1001H41L45.5 30.5001H43.5L42.3 27.1001ZM38.1 25.6001H41.9L40 20.1001H39.9L38.1 25.6001ZM55.2 26.0001C55.2 28.8001 53.7 30.6001 51.4 30.6001C50.1 30.6001 49.1 30.0001 48.6 29.0001V33.5001H46.7V21.5001H48.5V23.0001C49 22.0001 50.1 21.4001 51.4 21.4001C53.6 21.3001 55.2 23.2001 55.2 26.0001ZM53.2 26.0001C53.2 24.2001 52.3 23.0001 50.8 23.0001C49.4 23.0001 48.4 24.2001 48.4 26.0001C48.4 27.8001 49.4 29.0001 50.8 29.0001C52.3 29.0001 53.2 27.8001 53.2 26.0001ZM65.1 26.0001C65.1 28.8001 63.6 30.6001 61.3 30.6001C60 30.6001 59 30.0001 58.5 29.0001V33.5001H56.6V21.5001H58.4V23.0001C58.9 22.0001 60 21.4001 61.3 21.4001C63.6 21.3001 65.1 23.2001 65.1 26.0001ZM63.2 26.0001C63.2 24.2001 62.3 23.0001 60.8 23.0001C59.4 23.0001 58.4 24.2001 58.4 26.0001C58.4 27.8001 59.4 29.0001 60.8 29.0001C62.3 29.0001 63.2 27.8001 63.2 26.0001ZM71.7 27.0001C71.8 28.2001 73 29.0001 74.7 29.0001C76.3 29.0001 77.4 28.2001 77.4 27.1001C77.4 26.1001 76.7 25.6001 75.1 25.2001L73.5 24.8001C71.2 24.2001 70.2 23.2001 70.2 21.5001C70.2 19.4001 72.1 17.9001 74.7 17.9001C77.3 17.9001 79.1 19.4001 79.2 21.5001H77.3C77.2 20.3001 76.2 19.5001 74.7 19.5001C73.2 19.5001 72.2 20.3001 72.2 21.4001C72.2 22.3001 72.9 22.8001 74.5 23.2001L75.9 23.5001C78.4 24.1001 79.5 25.1001 79.5 26.9001C79.5 29.2001 77.6 30.7001 74.7 30.7001C71.9 30.7001 70.1 29.3001 70 27.0001H71.7ZM83.3 19.3001V21.4001H85V22.9001H83.3V27.9001C83.3 28.7001 83.6 29.0001 84.4 29.0001H85V30.5001C84.8 30.6001 84.4 30.6001 84 30.6001C82.2 30.6001 81.5 29.9001 81.5 28.2001V23.0001H80.2V21.5001H81.5V19.4001H83.3V19.3001ZM86.1 26.0001C86.1 23.2001 87.8 21.4001 90.4 21.4001C93 21.4001 94.7 23.2001 94.7 26.0001C94.7 28.9001 93 30.6001 90.4 30.6001C87.7 30.6001 86.1 28.8001 86.1 26.0001ZM92.8 26.0001C92.8 24.0001 91.9 22.9001 90.4 22.9001C88.9 22.9001 88 24.0001 88 26.0001C88 28.0001 88.9 29.1001 90.4 29.1001C91.9 29.1001 92.8 27.9001 92.8 26.0001ZM96.2 21.4001H98V23.0001C98.3 22.0001 99.1 21.4001 100.2 21.4001C100.5 21.4001 100.7 21.4001 100.8 21.5001V23.2001C100.7 23.1001 100.3 23.1001 100 23.1001C98.8 23.1001 98.1 23.9001 98.1 25.2001V30.6001H96.2V21.4001ZM109.4 27.8001C109.2 29.4001 107.5 30.6001 105.5 30.6001C102.9 30.6001 101.2 28.8001 101.2 26.0001C101.2 23.2001 102.8 21.3001 105.4 21.3001C107.9 21.3001 109.5 23.0001 109.5 25.8001V26.4001H103.1V26.5001C103.1 28.0001 104.1 29.1001 105.5 29.1001C106.5 29.1001 107.3 28.6001 107.6 27.8001H109.4ZM103.1 25.1001H107.6C107.6 23.7001 106.7 22.8001 105.4 22.8001C104.1 22.8001 103.2 23.8001 103.1 25.1001ZM37.8 8.70007C39.6 8.70007 40.6 9.80007 40.6 11.7001C40.6 13.6001 39.6 14.7001 37.8 14.7001H35.6V8.70007H37.8ZM36.6 13.9001H37.7C38.9 13.9001 39.7 13.1001 39.7 11.8001C39.7 10.5001 39 9.70007 37.7 9.70007H36.6V13.9001ZM41.7 12.4001C41.7 10.9001 42.5 10.1001 43.8 10.1001C45.1 10.1001 45.9 11.0001 45.9 12.4001C45.9 13.9001 45.1 14.7001 43.8 14.7001C42.5 14.8001 41.7 13.9001 41.7 12.4001ZM45 12.4001C45 11.4001 44.6 10.9001 43.8 10.9001C43 10.9001 42.6 11.5001 42.6 12.4001C42.6 13.4001 43 14.0001 43.8 14.0001C44.6 14.0001 45 13.4001 45 12.4001ZM51.6 14.7001H50.7L49.8 11.4001H49.7L48.8 14.7001H47.9L46.7 10.2001H47.6L48.4 13.6001H48.5L49.4 10.2001H50.3L51.2 13.6001H51.3L52.1 10.2001H53L51.6 14.7001Z" fill="white"/>
<path d="M53.9 10.2H54.8V10.9H54.9C55.1 10.4 55.6 10.1 56.2 10.1C57.2 10.1 57.8 10.7 57.8 11.8V14.7H56.9V12C56.9 11.3 56.6 10.9 55.9 10.9C55.2 10.9 54.8 11.3 54.8 12V14.6H53.9V10.2Z" fill="white"/>
<path d="M59.1 8.40002H60V14.7H59.1V8.40002Z" fill="white"/>
<path d="M61.2 12.4C61.2 10.9 62 10.1 63.3 10.1C64.6 10.1 65.4 11 65.4 12.4C65.4 13.9 64.6 14.7 63.3 14.7C62 14.8 61.2 13.9 61.2 12.4ZM64.6 12.4C64.6 11.4 64.2 10.9 63.4 10.9C62.6 10.9 62.2 11.5 62.2 12.4C62.2 13.4 62.6 14 63.4 14C64.1 14 64.6 13.4 64.6 12.4Z" fill="white"/>
<path d="M66.4 13.4C66.4 12.6 67 12.1 68.1 12.1L69.3 12V11.6C69.3 11.1 69 10.9 68.4 10.9C67.9 10.9 67.6 11.1 67.5 11.4H66.6C66.7 10.6 67.4 10.1 68.4 10.1C69.5 10.1 70.2 10.7 70.2 11.6V14.7H69.3V14.1H69.2C68.9 14.6 68.4 14.8 67.8 14.8C67 14.8 66.4 14.2 66.4 13.4ZM69.3 13V12.6L68.2 12.7C67.6 12.7 67.3 13 67.3 13.3C67.3 13.7 67.7 13.9 68.1 13.9C68.8 14 69.3 13.6 69.3 13ZM71.3 12.4C71.3 11 72 10.1 73.2 10.1C73.8 10.1 74.3 10.4 74.6 10.9H74.7V8.40002H75.6V14.7H74.7V14H74.6C74.3 14.5 73.8 14.8 73.2 14.8C72.1 14.8 71.3 13.9 71.3 12.4ZM72.3 12.4C72.3 13.4 72.8 13.9 73.5 13.9C74.2 13.9 74.7 13.3 74.7 12.4C74.7 11.5 74.2 10.9 73.5 10.9C72.7 10.9 72.3 11.5 72.3 12.4Z" fill="white"/>
<path d="M79.2 12.4C79.2 10.9 80 10.1 81.3 10.1C82.6 10.1 83.4 11 83.4 12.4C83.4 13.9 82.6 14.7 81.3 14.7C80 14.8 79.2 13.9 79.2 12.4ZM82.6 12.4C82.6 11.4 82.2 10.9 81.4 10.9C80.6 10.9 80.2 11.5 80.2 12.4C80.2 13.4 80.6 14 81.4 14C82.1 14 82.6 13.4 82.6 12.4Z" fill="white"/>
<path d="M84.7 10.2H85.6V10.9H85.7C85.9 10.4 86.4 10.1 87 10.1C88 10.1 88.6 10.7 88.6 11.8V14.7H87.7V12C87.7 11.3 87.4 10.9 86.7 10.9C86 10.9 85.6 11.3 85.6 12V14.6H84.7V10.2Z" fill="white"/>
<path d="M93.5 9.10003V10.2H94.5V11H93.5V13.3C93.5 13.8 93.7 14 94.1 14H94.4V14.7H93.9C92.9 14.7 92.5 14.4 92.5 13.5V11H91.8V10.3H92.5V9.10003H93.5ZM95.7 8.40002H96.6V10.9H96.7C96.9 10.4 97.4 10.1 98.1 10.1C99.1 10.1 99.7 10.7 99.7 11.8V14.7H98.8V12C98.8 11.3 98.5 10.9 97.8 10.9C97.1 10.9 96.7 11.4 96.7 12V14.6H95.8V8.40002H95.7ZM104.8 13.5C104.6 14.3 103.9 14.8 102.8 14.8C101.5 14.8 100.7 13.9 100.7 12.5C100.7 11.1 101.5 10.1 102.8 10.1C104.1 10.1 104.8 11 104.8 12.4V12.7H101.6C101.6 13.5 102.1 14 102.8 14C103.3 14 103.7 13.8 103.9 13.5H104.8ZM101.6 12H103.9C103.9 11.3 103.4 10.8 102.8 10.8C102.1 10.9 101.7 11.3 101.6 12Z" fill="white"/>
</svg>
