<svg width="136" height="40" viewBox="0 0 136 40" fill="none" xmlns="http://www.w3.org/2000/svg">
<path d="M9.3001 39.9H8.3001C7.7001 39.9 6.9001 39.9 6.2001 39.7C5.5001 39.6 4.9001 39.4 4.3001 39.1C3.6001 38.9 3.1001 38.5 2.6001 38.1C2.1001 37.7 1.7001 37.2 1.4001 36.6C1.1001 36.1 0.900098 35.5 0.800098 34.9L0.600098 32.9V7C0.600098 6.5 0.700098 5.7 0.800098 5C0.900098 4.4 1.1001 3.8 1.4001 3.3C1.7001 2.8 2.1001 2.3 2.6001 1.8C3.1001 1.4 3.6001 1 4.2001 0.8C4.8001 0.5 5.4001 0.3 6.1001 0.2L8.2001 0H127.9C128.5 0 129.3 0 130 0.2C130.7 0.3 131.3 0.5 131.9 0.8C132.5 1.1 133 1.4 133.5 1.9C134 2.3 134.4 2.8 134.7 3.4C135 3.9 135.2 4.5 135.3 5.1C135.4 5.8 135.5 6.4 135.5 7.1V33C135.5 33.6 135.4 34.3 135.3 34.9C135.2 35.5 135 36.1 134.7 36.6C134.4 37.1 134 37.6 133.5 38C133 38.4 132.5 38.8 131.9 39.1C131.3 39.4 130.7 39.6 130 39.7L127.9 39.9H9.3001Z" fill="black"/>
<path d="M48.0001 10.1C48.0001 10.9 47.8001 11.6 47.3001 12.1C46.7001 12.7 46.0001 13 45.1001 13C44.2001 13 43.5001 12.7 42.9001 12.1C42.3001 11.5 42.0001 10.8 42.0001 9.90005C42.0001 9.00005 42.3001 8.30005 42.9001 7.70005C43.5001 7.10005 44.2001 6.80005 45.1001 6.80005C45.5001 6.80005 45.9001 6.90005 46.3001 7.10005C46.7001 7.30005 47.0001 7.50005 47.2001 7.80005L46.7001 8.30005C46.3001 7.80005 45.8001 7.60005 45.1001 7.60005C44.5001 7.60005 43.9001 7.80005 43.5001 8.30005C43.0001 8.70005 42.8001 9.30005 42.8001 10C42.8001 10.7 43.0001 11.3 43.5001 11.7C44.0001 12.1 44.5001 12.4 45.1001 12.4C45.4173 12.4136 45.7336 12.3579 46.0271 12.2371C46.3207 12.1162 46.5844 11.933 46.8001 11.7C47.1001 11.4 47.3001 11 47.3001 10.5H45.1001V9.70005H48.0001V10.1ZM52.6001 7.60005H49.9001V9.50005H52.4001V10.2H49.9001V12.1H52.6001V12.8H49.1001V6.80005H52.6001V7.60005ZM55.9001 12.9H55.1001V7.60005H53.4001V6.90005H57.6001V7.60005H55.9001V12.9ZM60.5001 12.9V6.90005H61.3001V12.9H60.5001ZM64.7001 12.9H63.9001V7.60005H62.2001V6.90005H66.3001V7.60005H64.6001V12.9H64.7001ZM74.2001 12.1C73.6001 12.7 72.9001 13 72.0001 13C71.1001 13 70.4001 12.7 69.8001 12.1C69.2001 11.5 68.9001 10.8 68.9001 9.90005C68.9001 9.00005 69.2001 8.30005 69.8001 7.70005C70.4001 7.10005 71.1001 6.80005 72.0001 6.80005C72.9001 6.80005 73.6001 7.10005 74.2001 7.70005C74.8001 8.30005 75.1001 9.00005 75.1001 9.90005C75.1001 10.8 74.8001 11.5 74.2001 12.1ZM70.4001 11.6C70.8001 12 71.4001 12.3 72.0001 12.3C72.6001 12.3 73.2001 12.1 73.6001 11.6C74.0001 11.2 74.3001 10.6 74.3001 9.90005C74.3001 9.20005 74.1001 8.60005 73.6001 8.20005C73.2001 7.80005 72.6001 7.50005 72.0001 7.50005C71.4001 7.50005 70.8001 7.70005 70.4001 8.20005C70.0001 8.60005 69.7001 9.20005 69.7001 9.90005C69.7001 10.6 69.9001 11.2 70.4001 11.6ZM76.2001 12.9V6.90005H77.1001L80.0001 11.6V6.90005H80.8001V12.9H80.0001L76.9001 8.00005V12.9H76.2001Z" fill="white" stroke="white" stroke-width="0.2" stroke-miterlimit="10"/>
<path d="M68.7001 21.6C66.3001 21.6 64.4001 23.4 64.4001 25.9C64.4001 28.3 66.3001 30.2 68.7001 30.2C71.1001 30.2 73.0001 28.4 73.0001 25.9C73.0001 23.4 71.1001 21.6 68.7001 21.6ZM68.7001 28.5C67.4001 28.5 66.3001 27.4 66.3001 25.9C66.3001 24.4 67.4001 23.3 68.7001 23.3C70.0001 23.3 71.1001 24.3 71.1001 25.9C71.1001 27.4 70.0001 28.5 68.7001 28.5ZM59.4001 21.6C57.0001 21.6 55.1001 23.4 55.1001 25.9C55.1001 28.3 57.0001 30.2 59.4001 30.2C61.8001 30.2 63.7001 28.4 63.7001 25.9C63.7001 23.4 61.8001 21.6 59.4001 21.6ZM59.4001 28.5C58.1001 28.5 57.0001 27.4 57.0001 25.9C57.0001 24.4 58.1001 23.3 59.4001 23.3C60.7001 23.3 61.8001 24.3 61.8001 25.9C61.8001 27.4 60.7001 28.5 59.4001 28.5ZM48.3001 22.9V24.7H52.6001C52.5001 25.7 52.1001 26.5 51.6001 27C51.0001 27.6 50.0001 28.3 48.3001 28.3C45.6001 28.3 43.6001 26.2 43.6001 23.5C43.6001 20.8 45.7001 18.7 48.3001 18.7C49.7001 18.7 50.8001 19.3 51.6001 20L52.9001 18.7C51.8001 17.7 50.4001 16.9 48.4001 16.9C44.8001 16.9 41.7001 19.9 41.7001 23.5C41.7001 27.1 44.8001 30.1 48.4001 30.1C50.4001 30.1 51.8001 29.5 53.0001 28.2C54.2001 27 54.6001 25.3 54.6001 24C54.6001 23.6 54.6001 23.2 54.5001 22.9H48.3001ZM93.7001 24.3C93.3001 23.3 92.3001 21.6 90.1001 21.6C87.9001 21.6 86.1001 23.3 86.1001 25.9C86.1001 28.3 87.9001 30.2 90.3001 30.2C92.2001 30.2 93.4001 29 93.8001 28.3L92.4001 27.3C91.9001 28 91.3001 28.5 90.3001 28.5C89.3001 28.5 88.7001 28.1 88.2001 27.2L93.9001 24.8L93.7001 24.3ZM87.9001 25.8C87.9001 24.2 89.2001 23.3 90.1001 23.3C90.8001 23.3 91.5001 23.7 91.7001 24.2L87.9001 25.8ZM83.2001 29.9H85.1001V17.4H83.2001V29.9ZM80.2001 22.6C79.7001 22.1 78.9001 21.6 77.9001 21.6C75.8001 21.6 73.8001 23.5 73.8001 25.9C73.8001 28.3 75.7001 30.1 77.9001 30.1C78.9001 30.1 79.7001 29.6 80.1001 29.1H80.2001V29.7C80.2001 31.3 79.3001 32.2 77.9001 32.2C76.8001 32.2 76.0001 31.4 75.8001 30.7L74.2001 31.4C74.7001 32.5 75.9001 33.9 78.0001 33.9C80.2001 33.9 82.0001 32.6 82.0001 29.5V21.9H80.2001V22.6ZM78.0001 28.5C76.7001 28.5 75.6001 27.4 75.6001 25.9C75.6001 24.4 76.7001 23.3 78.0001 23.3C79.3001 23.3 80.3001 24.4 80.3001 25.9C80.3001 27.4 79.3001 28.5 78.0001 28.5ZM102.4 17.4H97.9001V29.9H99.8001V25.2H102.4C104.5 25.2 106.5 23.7 106.5 21.3C106.5 18.9 104.5 17.4 102.4 17.4ZM102.5 23.4H99.8001V19.1H102.5C103.067 19.0994 103.612 19.3174 104.021 19.7086C104.431 20.0998 104.674 20.6341 104.7 21.2C104.6 22.2 103.8 23.4 102.5 23.4ZM114 21.6C112.6 21.6 111.2 22.2 110.7 23.5L112.4 24.2C112.8 23.5 113.4 23.3 114.1 23.3C115.1 23.3 116 23.9 116.1 24.9V25C115.8 24.8 115 24.5 114.2 24.5C112.4 24.5 110.6 25.5 110.6 27.3C110.6 29 112.1 30.1 113.7 30.1C115 30.1 115.6 29.5 116.1 28.9H116.2V29.9H118V25.1C117.8 22.9 116.1 21.6 114 21.6ZM113.8 28.5C113.2 28.5 112.3 28.2 112.3 27.4C112.3 26.4 113.4 26.1 114.3 26.1C115.1 26.1 115.5 26.3 116 26.5C115.8 27.6 114.8 28.5 113.8 28.5ZM124.3 21.9L122.2 27.3H122.1L119.9 21.9H117.9L121.2 29.5L119.3 33.7H121.2L126.3 21.9H124.3ZM107.5 29.9H109.4V17.4H107.5V29.9Z" fill="white"/>
<path d="M11.0001 7.40002C10.7001 7.70002 10.6001 8.20002 10.6001 8.80002V30.9C10.6001 31.5 10.8001 32 11.1001 32.3L11.2001 32.4L23.5001 20V19.8L11.0001 7.40002Z" fill="url(#paint0_linear_69_437)"/>
<path d="M27.6001 24.2L23.5001 20V19.8L27.6001 15.7L27.7001 15.8L32.6001 18.6C34.0001 19.4 34.0001 20.7 32.6001 21.5L27.6001 24.2Z" fill="url(#paint1_linear_69_437)"/>
<path d="M27.7001 24.1L23.5001 19.9L11.0001 32.4C11.5001 32.9 12.2001 32.9 13.1001 32.5L27.7001 24.1Z" fill="url(#paint2_linear_69_437)"/>
<path d="M27.7001 15.7L13.1001 7.40001C12.2001 6.90001 11.5001 7.00001 11.0001 7.50001L23.5001 20L27.7001 15.7Z" fill="url(#paint3_linear_69_437)"/>
<path opacity="0.2" d="M27.6001 24L13.1001 32.2C12.3001 32.7 11.6001 32.6 11.1001 32.2L11.0001 32.3L11.1001 32.4C11.6001 32.8 12.3001 32.9 13.1001 32.4L27.6001 24Z" fill="black"/>
<path opacity="0.12" d="M11.0001 32.2C10.7001 31.9 10.5001 31.4 10.5001 30.8V30.9C10.5001 31.5 10.7001 32 11.0001 32.3V32.2ZM32.6001 21.2L27.6001 24L27.7001 24.1L32.6001 21.3C33.3001 20.9 33.6001 20.4 33.6001 19.9C33.6001 20.4 33.2001 20.8 32.6001 21.2Z" fill="black"/>
<path opacity="0.25" d="M13.1001 7.50005L32.6001 18.6001C33.2001 19.0001 33.6001 19.4001 33.6001 19.9001C33.6001 19.4001 33.3001 18.9001 32.6001 18.5001L13.1001 7.40005C11.7001 6.60005 10.6001 7.20005 10.6001 8.80005V9.00005C10.6001 7.40005 11.7001 6.70005 13.1001 7.50005Z" fill="white"/>
<defs>
<linearGradient id="paint0_linear_69_437" x1="22.4001" y1="8.59702" x2="5.6171" y2="25.38" gradientUnits="userSpaceOnUse">
<stop stop-color="#00A0FF"/>
<stop offset="0.007" stop-color="#00A1FF"/>
<stop offset="0.26" stop-color="#00BEFF"/>
<stop offset="0.512" stop-color="#00D2FF"/>
<stop offset="0.76" stop-color="#00DFFF"/>
<stop offset="1" stop-color="#00E3FF"/>
</linearGradient>
<linearGradient id="paint1_linear_69_437" x1="34.4341" y1="19.889" x2="10.2371" y2="19.889" gradientUnits="userSpaceOnUse">
<stop stop-color="#FFE000"/>
<stop offset="0.409" stop-color="#FFBD00"/>
<stop offset="0.775" stop-color="#FFA500"/>
<stop offset="1" stop-color="#FF9C00"/>
</linearGradient>
<linearGradient id="paint2_linear_69_437" x1="25.4271" y1="22.184" x2="2.66912" y2="44.942" gradientUnits="userSpaceOnUse">
<stop stop-color="#FF3A44"/>
<stop offset="1" stop-color="#C31162"/>
</linearGradient>
<linearGradient id="paint3_linear_69_437" x1="7.89712" y1="0.0640148" x2="18.0601" y2="10.226" gradientUnits="userSpaceOnUse">
<stop stop-color="#32A071"/>
<stop offset="0.069" stop-color="#2DA771"/>
<stop offset="0.476" stop-color="#15CF74"/>
<stop offset="0.801" stop-color="#06E775"/>
<stop offset="1" stop-color="#00F076"/>
</linearGradient>
</defs>
</svg>
