<?xml version="1.0" encoding="utf-8"?>
<!-- Generator: Adobe Illustrator 24.3.0, SVG Export Plug-In . SVG Version: 6.00 Build 0)  -->
<svg version="1.1" id="Layer_1" xmlns="http://www.w3.org/2000/svg" xmlns:xlink="http://www.w3.org/1999/xlink" x="0px" y="0px"
	 viewBox="0 0 107 25" style="enable-background:new 0 0 107 25;" xml:space="preserve">
<style type="text/css">
	.st0{fill:#E1E1E1;}
</style>
<circle class="st0" cx="9.7" cy="12.3" r="9.4"/>
<path class="st0" d="M64.5,21.8H33.9c-4.9,0-9-4-9-9V12c0-4.9,4-9,9-9h30.6c4.9,0,9,4,9,9v0.8C73.4,17.8,69.4,21.8,64.5,21.8z"/>
<path class="st0" d="M94.5,21.9H63.9c-4.9,0-9-4-9-9v-0.8c0-4.9,4-9,9-9h30.6c4.9,0,9,4,9,9V13C103.5,17.9,99.5,21.9,94.5,21.9z"/>
<path class="st0" d="M97.5,21.9H66.9c-4.9,0-9-4-9-9V12c0-4.9,4-9,9-9h30.6c4.9,0,9,4,9,9v0.8C106.4,17.8,102.4,21.8,97.5,21.9z"/>
</svg>
