<?xml version="1.0" encoding="utf-8"?>
<!-- Generator: Adobe Illustrator 24.3.0, SVG Export Plug-In . SVG Version: 6.00 Build 0)  -->
<svg version="1.1" xmlns="http://www.w3.org/2000/svg" xmlns:xlink="http://www.w3.org/1999/xlink" x="0px" y="0px"
	 viewBox="0 0 283 230" style="enable-background:new 0 0 283 230;" xml:space="preserve">
<style type="text/css">
	.st0{clip-path:url(#XMLID_2_);}
	.st1{fill:none;stroke:#424242;stroke-width:0.6419;stroke-miterlimit:10;}
	.st2{fill:none;stroke:#424242;stroke-width:0.6335;stroke-miterlimit:10;}
	.st3{fill:none;stroke:#424242;stroke-width:0.6252;stroke-miterlimit:10;}
	.st4{fill:none;stroke:#424242;stroke-width:0.6168;stroke-miterlimit:10;}
	.st5{fill:none;stroke:#424242;stroke-width:0.6085;stroke-miterlimit:10;}
	.st6{fill:none;stroke:#424242;stroke-width:0.6001;stroke-miterlimit:10;}
	.st7{fill:none;stroke:#424242;stroke-width:0.5918;stroke-miterlimit:10;}
	.st8{fill:none;stroke:#424242;stroke-width:0.5834;stroke-miterlimit:10;}
	.st9{fill:none;stroke:#424242;stroke-width:0.5751;stroke-miterlimit:10;}
	.st10{fill:none;stroke:#424242;stroke-width:0.5668;stroke-miterlimit:10;}
	.st11{fill:none;stroke:#424242;stroke-width:0.5584;stroke-miterlimit:10;}
	.st12{fill:none;stroke:#424242;stroke-width:0.5501;stroke-miterlimit:10;}
	.st13{fill:none;stroke:#424242;stroke-width:0.5417;stroke-miterlimit:10;}
	.st14{fill:none;stroke:#424242;stroke-width:0.5334;stroke-miterlimit:10;}
	.st15{fill:none;stroke:#424242;stroke-width:0.525;stroke-miterlimit:10;}
	.st16{fill:none;stroke:#424242;stroke-width:0.5167;stroke-miterlimit:10;}
	.st17{fill:none;stroke:#424242;stroke-width:0.5083;stroke-miterlimit:10;}
	.st18{fill:none;stroke:#424242;stroke-width:0.5;stroke-miterlimit:10;}
</style>
<g id="BACKGROUND_1_">
</g>
<g id="OBJECTS">
	<g>
		<defs>
			<rect id="XMLID_14_" y="-270" width="750" height="500"/>
		</defs>
		<clipPath id="XMLID_2_">
			<use xlink:href="#XMLID_14_"  style="overflow:visible;"/>
		</clipPath>
		<g class="st0">
			
				<ellipse transform="matrix(0.7071 -0.7071 0.7071 0.7071 -194.9102 88.7173)" class="st1" cx="9.6" cy="279.6" rx="277.4" ry="277.4"/>
			
				<ellipse transform="matrix(0.7071 -0.7071 0.7071 0.7071 -194.9102 88.7173)" class="st2" cx="9.6" cy="279.6" rx="263.9" ry="263.9"/>
			
				<ellipse transform="matrix(0.7071 -0.7071 0.7071 0.7071 -194.9102 88.7173)" class="st3" cx="9.6" cy="279.6" rx="250.4" ry="250.4"/>
			
				<ellipse transform="matrix(0.7071 -0.7071 0.7071 0.7071 -194.9102 88.7173)" class="st4" cx="9.6" cy="279.6" rx="236.9" ry="236.9"/>
			
				<ellipse transform="matrix(0.7071 -0.7071 0.7071 0.7071 -194.9102 88.7173)" class="st5" cx="9.6" cy="279.6" rx="223.5" ry="223.5"/>
			
				<ellipse transform="matrix(0.7071 -0.7071 0.7071 0.7071 -194.9102 88.7173)" class="st6" cx="9.6" cy="279.6" rx="210" ry="210"/>
			
				<ellipse transform="matrix(0.7071 -0.7071 0.7071 0.7071 -194.9102 88.7173)" class="st7" cx="9.6" cy="279.6" rx="196.5" ry="196.5"/>
			
				<ellipse transform="matrix(0.7071 -0.7071 0.7071 0.7071 -194.9102 88.7173)" class="st8" cx="9.6" cy="279.6" rx="183" ry="183"/>
			
				<ellipse transform="matrix(0.7071 -0.7071 0.7071 0.7071 -194.9102 88.7173)" class="st9" cx="9.6" cy="279.6" rx="169.5" ry="169.5"/>
			
				<ellipse transform="matrix(0.7071 -0.7071 0.7071 0.7071 -194.9102 88.7173)" class="st10" cx="9.6" cy="279.6" rx="156.1" ry="156.1"/>
			
				<ellipse transform="matrix(0.7071 -0.7071 0.7071 0.7071 -194.9102 88.7172)" class="st11" cx="9.6" cy="279.6" rx="142.6" ry="142.6"/>
			
				<ellipse transform="matrix(0.7071 -0.7071 0.7071 0.7071 -194.9102 88.7172)" class="st12" cx="9.6" cy="279.6" rx="129.1" ry="129.1"/>
			
				<ellipse transform="matrix(0.7071 -0.7071 0.7071 0.7071 -194.9102 88.7172)" class="st13" cx="9.6" cy="279.6" rx="115.6" ry="115.6"/>
			
				<ellipse transform="matrix(0.7071 -0.7071 0.7071 0.7071 -194.9102 88.7172)" class="st14" cx="9.6" cy="279.6" rx="102.1" ry="102.1"/>
			
				<ellipse transform="matrix(0.9672 -0.2542 0.2542 0.9672 -70.7591 11.6327)" class="st15" cx="9.6" cy="279.6" rx="88.7" ry="88.7"/>
			
				<ellipse transform="matrix(0.9665 -0.2569 0.2569 0.9665 -71.5023 11.8568)" class="st16" cx="9.6" cy="279.6" rx="75.2" ry="75.2"/>
			
				<ellipse transform="matrix(0.9654 -0.2607 0.2607 0.9654 -72.5678 12.182)" class="st17" cx="9.6" cy="279.6" rx="61.7" ry="61.7"/>
			
				<ellipse transform="matrix(0.9638 -0.2667 0.2667 0.9638 -74.2232 12.6964)" class="st18" cx="9.6" cy="279.6" rx="48.2" ry="48.2"/>
		</g>
	</g>
	<g>
		<defs>
			<rect id="XMLID_13_" y="-270" width="750" height="500"/>
		</defs>
		<clipPath id="XMLID_3_">
			<use xlink:href="#XMLID_13_"  style="overflow:visible;"/>
		</clipPath>
	</g>
</g>
</svg>
