<svg xmlns="http://www.w3.org/2000/svg" xmlns:xlink="http://www.w3.org/1999/xlink" xml:space="preserve" style="enable-background:new 0 0 283 230" viewBox="0 0 283 230"><defs><path id="a" d="M0-270h750v500H0z"/></defs><clipPath id="b"><use xlink:href="#a" style="overflow:visible"/></clipPath><g style="clip-path:url(#b)"><circle cx="9.6" cy="279.6" r="277.4" style="fill:none;stroke:#424242;stroke-width:.6419;stroke-miterlimit:10" transform="rotate(-45.001 9.633 279.638)"/><circle cx="9.6" cy="279.6" r="263.9" style="fill:none;stroke:#424242;stroke-width:.6335;stroke-miterlimit:10" transform="rotate(-45.001 9.633 279.638)"/><circle cx="9.6" cy="279.6" r="250.4" style="fill:none;stroke:#424242;stroke-width:.6252;stroke-miterlimit:10" transform="rotate(-45.001 9.633 279.638)"/><circle cx="9.6" cy="279.6" r="236.9" style="fill:none;stroke:#424242;stroke-width:.6168;stroke-miterlimit:10" transform="rotate(-45.001 9.633 279.638)"/><circle cx="9.6" cy="279.6" r="223.5" style="fill:none;stroke:#424242;stroke-width:.6085;stroke-miterlimit:10" transform="rotate(-45.001 9.633 279.638)"/><circle cx="9.6" cy="279.6" r="210" style="fill:none;stroke:#424242;stroke-width:.6001;stroke-miterlimit:10" transform="rotate(-45.001 9.633 279.638)"/><circle cx="9.6" cy="279.6" r="196.5" style="fill:none;stroke:#424242;stroke-width:.5918;stroke-miterlimit:10" transform="rotate(-45.001 9.633 279.638)"/><circle cx="9.6" cy="279.6" r="183" style="fill:none;stroke:#424242;stroke-width:.5834;stroke-miterlimit:10" transform="rotate(-45.001 9.633 279.638)"/><circle cx="9.6" cy="279.6" r="169.5" style="fill:none;stroke:#424242;stroke-width:.5751;stroke-miterlimit:10" transform="rotate(-45.001 9.633 279.638)"/><circle cx="9.6" cy="279.6" r="156.1" style="fill:none;stroke:#424242;stroke-width:.5668;stroke-miterlimit:10" transform="rotate(-45.001 9.633 279.638)"/><circle cx="9.6" cy="279.6" r="142.6" style="fill:none;stroke:#424242;stroke-width:.5584;stroke-miterlimit:10" transform="rotate(-45.001 9.633 279.637)"/><circle cx="9.6" cy="279.6" r="129.1" style="fill:none;stroke:#424242;stroke-width:.5501;stroke-miterlimit:10" transform="rotate(-45.001 9.633 279.637)"/><circle cx="9.6" cy="279.6" r="115.6" style="fill:none;stroke:#424242;stroke-width:.5417;stroke-miterlimit:10" transform="rotate(-45.001 9.633 279.637)"/><circle cx="9.6" cy="279.6" r="102.1" style="fill:none;stroke:#424242;stroke-width:.5334;stroke-miterlimit:10" transform="rotate(-45.001 9.633 279.637)"/><circle cx="9.6" cy="279.6" r="88.7" style="fill:none;stroke:#424242;stroke-width:.525;stroke-miterlimit:10" transform="rotate(-14.725 9.633 279.605)"/><circle cx="9.6" cy="279.6" r="75.2" style="fill:none;stroke:#424242;stroke-width:.5167;stroke-miterlimit:10" transform="rotate(-14.885 9.63 279.585)"/><circle cx="9.6" cy="279.6" r="61.7" style="fill:none;stroke:#424242;stroke-width:.5083;stroke-miterlimit:10" transform="rotate(-15.116 9.615 279.634)"/><circle cx="9.6" cy="279.6" r="48.2" style="fill:none;stroke:#424242;stroke-width:.5;stroke-miterlimit:10" transform="rotate(-15.464 9.653 279.612)"/></g><defs><path id="c" d="M0-270h750v500H0z"/></defs></svg>