<svg xmlns="http://www.w3.org/2000/svg" xml:space="preserve" id="Layer_1" x="0" y="0" style="enable-background:new 0 0 107 25" version="1.1" viewBox="0 0 107 25"><style>.st0{fill:#e1e1e1}</style><circle cx="9.7" cy="12.3" r="9.4" class="st0"/><path d="M64.5 21.8H33.9c-4.9 0-9-4-9-9V12c0-4.9 4-9 9-9h30.6c4.9 0 9 4 9 9v.8c-.1 5-4.1 9-9 9z" class="st0"/><path d="M94.5 21.9H63.9c-4.9 0-9-4-9-9v-.8c0-4.9 4-9 9-9h30.6c4.9 0 9 4 9 9v.9c0 4.9-4 8.9-9 8.9z" class="st0"/><path d="M97.5 21.9H66.9c-4.9 0-9-4-9-9V12c0-4.9 4-9 9-9h30.6c4.9 0 9 4 9 9v.8c-.1 5-4.1 9-9 9.1z" class="st0"/></svg>